<svg width="24" height="24" viewBox="0 0 24 24" fill="none" xmlns="http://www.w3.org/2000/svg">
<path fill-rule="evenodd" clip-rule="evenodd" d="M6.19704 3.75355L5.45549 2H2.75042C2.33478 2 2 2.33879 2 2.75403C2 3.16926 2.33478 3.50805 2.75042 3.50805H4.46311L7.83677 11.5138L6.17111 14.3394C5.84174 14.8899 5.83399 15.5637 6.15603 16.1222C6.47047 16.6786 7.04261 17.0199 7.68794 17.0199H18.7417C19.1573 17.0199 19.4921 16.6811 19.4921 16.2659C19.4921 15.8507 19.1573 15.5119 18.7417 15.5119H7.68794C7.55677 15.5119 7.49515 15.4356 7.45797 15.3764C7.42836 15.3187 7.39439 15.2197 7.45748 15.1091L9.01765 12.4607H17.0429C17.8872 12.4607 18.6523 11.9948 19.0482 11.2489L21.8249 5.98709C22.0008 5.64976 22.0436 5.26823 21.9559 4.91089L21.8958 4.71481L21.7926 4.49483C21.5214 4.03497 21.0322 3.75355 20.4971 3.75355H6.19704Z" fill="#0D243F"/>
<path fill-rule="evenodd" clip-rule="evenodd" d="M7.55485 17.9413C6.43912 17.9413 5.53662 18.851 5.53662 19.9707C5.53662 21.0903 6.43912 22 7.55485 22C8.67057 22 9.57307 21.0903 9.57307 19.9707C9.57307 18.851 8.67057 17.9413 7.55485 17.9413Z" fill="#0D243F"/>
<path fill-rule="evenodd" clip-rule="evenodd" d="M17.7147 17.9413C16.599 17.9413 15.6965 18.851 15.6965 19.9707C15.6965 21.0903 16.599 22 17.7147 22C18.8304 22 19.7329 21.0903 19.7329 19.9707C19.7329 18.851 18.8304 17.9413 17.7147 17.9413Z" fill="#0D243F"/>
</svg>
