<svg width="24" height="24" viewBox="0 0 24 24" fill="none" xmlns="http://www.w3.org/2000/svg">
<path fill-rule="evenodd" clip-rule="evenodd" d="M13.3999 16.8999C13.3999 16.3476 12.9522 15.8999 12.3999 15.8999H11.5999C11.0476 15.8999 10.5999 16.3476 10.5999 16.8999V19.6001C10.5999 20.7047 9.70447 21.6001 8.5999 21.6001H5.3999C4.29533 21.6001 3.3999 20.7047 3.3999 19.6001V9.87571C3.3999 9.242 3.70023 8.64579 4.20945 8.26859L10.8094 3.3797C11.5166 2.85585 12.4832 2.85585 13.1904 3.3797L19.7904 8.26859C20.2996 8.64579 20.5999 9.242 20.5999 9.87571V19.6001C20.5999 20.7047 19.7045 21.6001 18.5999 21.6001H15.3999C14.2953 21.6001 13.3999 20.7047 13.3999 19.6001V16.8999Z" fill="#0D243F"/>
</svg>
