<svg width="24" height="24" viewBox="0 0 24 24" fill="none" xmlns="http://www.w3.org/2000/svg">
<mask id="path-1-outside-1_69_4055" maskUnits="userSpaceOnUse" x="1.5" y="1.5" width="21" height="21" fill="black">
<rect fill="white" x="1.5" y="1.5" width="21" height="21"/>
<path d="M11.2935 2.5095C8.92877 2.72138 6.89863 3.65436 5.27378 5.27872C3.79022 6.76555 2.90157 8.54602 2.56693 10.7019C2.47769 11.3004 2.47769 12.7054 2.56693 13.3039C2.90157 15.4598 3.79022 17.2402 5.27378 18.7271C6.76106 20.2102 8.54207 21.0986 10.6986 21.4331C11.2973 21.5223 12.7027 21.5223 13.3014 21.4331C15.4579 21.0986 17.2389 20.2102 18.7262 18.7271C20.2098 17.2402 21.0984 15.4598 21.4331 13.3039C21.5223 12.7054 21.5223 11.3004 21.4331 10.7019C21.0984 8.54602 20.2098 6.76555 18.7262 5.27872C17.2501 3.80676 15.4468 2.8998 13.3386 2.58013C12.963 2.52437 11.6468 2.47977 11.2935 2.5095ZM11.4311 7.49037C11.4014 7.52011 8.60157 7.33798 8.55323 7.30452C8.53092 7.28594 8.86556 6.48305 9.0589 6.10019C9.67241 4.87356 10.4867 4.0112 11.2935 3.73242L11.4237 3.68781L11.4348 5.58352C11.4386 6.62801 11.4386 7.48294 11.4311 7.49037ZM13.0746 3.89969C13.2939 4.00748 13.7401 4.37547 13.9818 4.64682C14.283 4.97392 14.6771 5.57609 14.9411 6.10019C15.1716 6.56111 15.4691 7.28594 15.4393 7.31567C15.4096 7.34541 13.8814 7.45692 13.201 7.48294L12.5577 7.50524V5.59095V3.67666L12.7436 3.75101C12.8477 3.79189 12.9965 3.8588 13.0746 3.89969ZM8.89159 4.24166C8.87671 4.26768 8.78376 4.39778 8.6908 4.53159C8.27808 5.10402 7.85793 5.92921 7.55675 6.75068C7.47495 6.9737 7.39687 7.13354 7.37084 7.13354C7.21468 7.13354 5.54892 6.7544 5.50431 6.70979C5.47456 6.68005 5.87613 6.23772 6.24795 5.88832C6.88004 5.29359 7.54931 4.83639 8.37476 4.43123C8.87671 4.18962 8.9362 4.16732 8.89159 4.24166ZM15.6252 4.43123C16.447 4.83267 17.1088 5.28244 17.7446 5.88089C18.135 6.24516 18.5589 6.72838 18.518 6.76555C18.4548 6.8213 16.6254 7.20416 16.5957 7.16699C16.592 7.15956 16.525 6.97742 16.447 6.76183C16.1458 5.93664 15.7256 5.10773 15.3092 4.53159C15.0935 4.22679 15.075 4.19705 15.1121 4.19705C15.127 4.19705 15.3613 4.30485 15.6252 4.43123ZM5.14736 7.78031C5.50059 7.8881 6.47847 8.11484 6.84286 8.17803C7.13288 8.22635 7.12544 8.20033 7.01761 8.70586C6.87632 9.37493 6.72016 10.6982 6.72016 11.2446V11.4453H5.1771H3.63405V11.3115C3.63405 10.8915 3.84599 9.88045 4.06908 9.2374C4.25499 8.69099 4.74207 7.6911 4.82016 7.6911C4.83503 7.6911 4.98376 7.73198 5.14736 7.78031ZM19.5665 8.3676C19.8342 8.92516 20.0164 9.43068 20.1577 9.99939C20.2581 10.4157 20.3659 11.0922 20.3659 11.3115V11.4453H18.8303H17.291L17.2687 10.9695C17.2352 10.3488 17.1497 9.61282 17.0344 8.99207C16.9824 8.71701 16.9303 8.43823 16.9192 8.37504L16.9006 8.25609L17.172 8.21149C17.5401 8.15201 18.5217 7.93642 18.9159 7.82491C19.2914 7.72083 19.2282 7.66879 19.5665 8.3676ZM8.80235 8.44938C9.23738 8.4977 9.99589 8.55346 11.0072 8.60549L11.4423 8.6278V10.0366V11.4453H9.63894H7.83562V11.2483C7.83562 11.003 7.93601 9.94736 7.98434 9.64256C8.12935 8.79506 8.22231 8.39734 8.27808 8.39734C8.31155 8.39734 8.54579 8.42336 8.80235 8.44938ZM15.8297 8.6278C15.9933 9.39351 16.1644 10.7279 16.1644 11.2483V11.4453H14.3611H12.5577V10.0366V8.63151L13.1824 8.60549C13.8479 8.57948 15.3427 8.4754 15.4022 8.4531C15.4245 8.44566 15.5174 8.43823 15.6141 8.43823L15.7851 8.43451L15.8297 8.6278ZM6.7499 13.2035C6.80196 13.9135 6.90235 14.6829 7.02505 15.2665C7.07339 15.4932 7.09198 15.6605 7.06967 15.6754C7.05108 15.6939 6.82055 15.746 6.55284 15.7906C6.28885 15.8389 5.8092 15.943 5.49315 16.0248C5.1771 16.1065 4.87221 16.1846 4.81644 16.192C4.71605 16.2106 4.70489 16.192 4.45577 15.6865C4.19178 15.1401 3.9501 14.4747 3.82368 13.9358C3.73816 13.5641 3.63405 12.8876 3.63405 12.6943V12.5605H5.16967H6.70528L6.7499 13.2035ZM11.4423 13.9544V15.3483H11.0072C10.4867 15.3483 9.55342 15.404 8.78748 15.4784C8.48258 15.5081 8.22603 15.5304 8.22231 15.523C8.21859 15.5192 8.17025 15.3036 8.1182 15.0435C8.00294 14.4747 7.88767 13.5938 7.85049 12.9954L7.82446 12.5605H9.63523H11.4423V13.9544ZM16.1644 12.7166C16.1644 13.2221 16.0008 14.497 15.8558 15.1736C15.7814 15.5044 15.7628 15.5527 15.6996 15.5453C14.7106 15.4375 13.4687 15.3483 12.9221 15.3483H12.5577V13.9544V12.5605H14.3611H16.1644V12.7166ZM20.3659 12.6943C20.3659 13.1143 20.1763 14.025 19.9495 14.7164C19.7562 15.2888 19.2691 16.2924 19.1947 16.2627C18.9233 16.1586 17.9231 15.9207 17.0902 15.7571L16.8783 15.7162L16.9489 15.3929C17.1051 14.6755 17.2798 13.2927 17.2798 12.7575V12.5605H18.8229H20.3659V12.6943ZM11.4423 18.3591C11.4423 19.3999 11.4311 20.2548 11.42 20.2548C11.3605 20.2548 10.825 19.9834 10.6354 19.8533C10.1074 19.4965 9.47906 18.6899 9.05519 17.835C8.8544 17.4298 8.53092 16.6492 8.55323 16.6269C8.56438 16.6158 9.99217 16.5005 10.2896 16.4894C10.4235 16.482 10.7358 16.4745 10.9887 16.4708L11.4423 16.4634V18.3591ZM14.5284 16.5563C14.8667 16.5898 15.2125 16.6232 15.298 16.6344L15.4505 16.6529L15.3092 17.0172C15.0898 17.5822 14.7775 18.1992 14.4912 18.6304C14.19 19.0876 13.6806 19.6377 13.3646 19.8533C13.175 19.9834 12.6395 20.2548 12.58 20.2548C12.5689 20.2548 12.5577 19.3999 12.5577 18.3554V16.4522L13.2382 16.4782C13.61 16.4931 14.19 16.5266 14.5284 16.5563ZM7.48611 16.9949C7.79472 17.9242 8.30039 18.8869 8.94736 19.779C8.99569 19.8459 8.99198 19.8459 8.79863 19.7716C7.86536 19.4036 6.709 18.6156 5.97652 17.8536C5.66791 17.5339 5.4002 17.2105 5.4225 17.1919C5.482 17.1473 7.34481 16.7607 7.39687 16.7868C7.40802 16.7942 7.44892 16.8871 7.48611 16.9949ZM17.1497 16.9094C17.5141 16.98 18.3693 17.1808 18.4994 17.2254C18.5701 17.2514 18.4622 17.3926 18.0644 17.809C17.3059 18.6081 16.1607 19.3924 15.2014 19.7716C15.008 19.8459 15.0043 19.8459 15.0526 19.779C15.6364 18.9761 16.1123 18.0952 16.4247 17.2365C16.5659 16.8499 16.5957 16.8016 16.6626 16.8165C16.7072 16.8239 16.9266 16.8685 17.1497 16.9094Z"/>
</mask>
<path d="M11.2935 2.5095C8.92877 2.72138 6.89863 3.65436 5.27378 5.27872C3.79022 6.76555 2.90157 8.54602 2.56693 10.7019C2.47769 11.3004 2.47769 12.7054 2.56693 13.3039C2.90157 15.4598 3.79022 17.2402 5.27378 18.7271C6.76106 20.2102 8.54207 21.0986 10.6986 21.4331C11.2973 21.5223 12.7027 21.5223 13.3014 21.4331C15.4579 21.0986 17.2389 20.2102 18.7262 18.7271C20.2098 17.2402 21.0984 15.4598 21.4331 13.3039C21.5223 12.7054 21.5223 11.3004 21.4331 10.7019C21.0984 8.54602 20.2098 6.76555 18.7262 5.27872C17.2501 3.80676 15.4468 2.8998 13.3386 2.58013C12.963 2.52437 11.6468 2.47977 11.2935 2.5095ZM11.4311 7.49037C11.4014 7.52011 8.60157 7.33798 8.55323 7.30452C8.53092 7.28594 8.86556 6.48305 9.0589 6.10019C9.67241 4.87356 10.4867 4.0112 11.2935 3.73242L11.4237 3.68781L11.4348 5.58352C11.4386 6.62801 11.4386 7.48294 11.4311 7.49037ZM13.0746 3.89969C13.2939 4.00748 13.7401 4.37547 13.9818 4.64682C14.283 4.97392 14.6771 5.57609 14.9411 6.10019C15.1716 6.56111 15.4691 7.28594 15.4393 7.31567C15.4096 7.34541 13.8814 7.45692 13.201 7.48294L12.5577 7.50524V5.59095V3.67666L12.7436 3.75101C12.8477 3.79189 12.9965 3.8588 13.0746 3.89969ZM8.89159 4.24166C8.87671 4.26768 8.78376 4.39778 8.6908 4.53159C8.27808 5.10402 7.85793 5.92921 7.55675 6.75068C7.47495 6.9737 7.39687 7.13354 7.37084 7.13354C7.21468 7.13354 5.54892 6.7544 5.50431 6.70979C5.47456 6.68005 5.87613 6.23772 6.24795 5.88832C6.88004 5.29359 7.54931 4.83639 8.37476 4.43123C8.87671 4.18962 8.9362 4.16732 8.89159 4.24166ZM15.6252 4.43123C16.447 4.83267 17.1088 5.28244 17.7446 5.88089C18.135 6.24516 18.5589 6.72838 18.518 6.76555C18.4548 6.8213 16.6254 7.20416 16.5957 7.16699C16.592 7.15956 16.525 6.97742 16.447 6.76183C16.1458 5.93664 15.7256 5.10773 15.3092 4.53159C15.0935 4.22679 15.075 4.19705 15.1121 4.19705C15.127 4.19705 15.3613 4.30485 15.6252 4.43123ZM5.14736 7.78031C5.50059 7.8881 6.47847 8.11484 6.84286 8.17803C7.13288 8.22635 7.12544 8.20033 7.01761 8.70586C6.87632 9.37493 6.72016 10.6982 6.72016 11.2446V11.4453H5.1771H3.63405V11.3115C3.63405 10.8915 3.84599 9.88045 4.06908 9.2374C4.25499 8.69099 4.74207 7.6911 4.82016 7.6911C4.83503 7.6911 4.98376 7.73198 5.14736 7.78031ZM19.5665 8.3676C19.8342 8.92516 20.0164 9.43068 20.1577 9.99939C20.2581 10.4157 20.3659 11.0922 20.3659 11.3115V11.4453H18.8303H17.291L17.2687 10.9695C17.2352 10.3488 17.1497 9.61282 17.0344 8.99207C16.9824 8.71701 16.9303 8.43823 16.9192 8.37504L16.9006 8.25609L17.172 8.21149C17.5401 8.15201 18.5217 7.93642 18.9159 7.82491C19.2914 7.72083 19.2282 7.66879 19.5665 8.3676ZM8.80235 8.44938C9.23738 8.4977 9.99589 8.55346 11.0072 8.60549L11.4423 8.6278V10.0366V11.4453H9.63894H7.83562V11.2483C7.83562 11.003 7.93601 9.94736 7.98434 9.64256C8.12935 8.79506 8.22231 8.39734 8.27808 8.39734C8.31155 8.39734 8.54579 8.42336 8.80235 8.44938ZM15.8297 8.6278C15.9933 9.39351 16.1644 10.7279 16.1644 11.2483V11.4453H14.3611H12.5577V10.0366V8.63151L13.1824 8.60549C13.8479 8.57948 15.3427 8.4754 15.4022 8.4531C15.4245 8.44566 15.5174 8.43823 15.6141 8.43823L15.7851 8.43451L15.8297 8.6278ZM6.7499 13.2035C6.80196 13.9135 6.90235 14.6829 7.02505 15.2665C7.07339 15.4932 7.09198 15.6605 7.06967 15.6754C7.05108 15.6939 6.82055 15.746 6.55284 15.7906C6.28885 15.8389 5.8092 15.943 5.49315 16.0248C5.1771 16.1065 4.87221 16.1846 4.81644 16.192C4.71605 16.2106 4.70489 16.192 4.45577 15.6865C4.19178 15.1401 3.9501 14.4747 3.82368 13.9358C3.73816 13.5641 3.63405 12.8876 3.63405 12.6943V12.5605H5.16967H6.70528L6.7499 13.2035ZM11.4423 13.9544V15.3483H11.0072C10.4867 15.3483 9.55342 15.404 8.78748 15.4784C8.48258 15.5081 8.22603 15.5304 8.22231 15.523C8.21859 15.5192 8.17025 15.3036 8.1182 15.0435C8.00294 14.4747 7.88767 13.5938 7.85049 12.9954L7.82446 12.5605H9.63523H11.4423V13.9544ZM16.1644 12.7166C16.1644 13.2221 16.0008 14.497 15.8558 15.1736C15.7814 15.5044 15.7628 15.5527 15.6996 15.5453C14.7106 15.4375 13.4687 15.3483 12.9221 15.3483H12.5577V13.9544V12.5605H14.3611H16.1644V12.7166ZM20.3659 12.6943C20.3659 13.1143 20.1763 14.025 19.9495 14.7164C19.7562 15.2888 19.2691 16.2924 19.1947 16.2627C18.9233 16.1586 17.9231 15.9207 17.0902 15.7571L16.8783 15.7162L16.9489 15.3929C17.1051 14.6755 17.2798 13.2927 17.2798 12.7575V12.5605H18.8229H20.3659V12.6943ZM11.4423 18.3591C11.4423 19.3999 11.4311 20.2548 11.42 20.2548C11.3605 20.2548 10.825 19.9834 10.6354 19.8533C10.1074 19.4965 9.47906 18.6899 9.05519 17.835C8.8544 17.4298 8.53092 16.6492 8.55323 16.6269C8.56438 16.6158 9.99217 16.5005 10.2896 16.4894C10.4235 16.482 10.7358 16.4745 10.9887 16.4708L11.4423 16.4634V18.3591ZM14.5284 16.5563C14.8667 16.5898 15.2125 16.6232 15.298 16.6344L15.4505 16.6529L15.3092 17.0172C15.0898 17.5822 14.7775 18.1992 14.4912 18.6304C14.19 19.0876 13.6806 19.6377 13.3646 19.8533C13.175 19.9834 12.6395 20.2548 12.58 20.2548C12.5689 20.2548 12.5577 19.3999 12.5577 18.3554V16.4522L13.2382 16.4782C13.61 16.4931 14.19 16.5266 14.5284 16.5563ZM7.48611 16.9949C7.79472 17.9242 8.30039 18.8869 8.94736 19.779C8.99569 19.8459 8.99198 19.8459 8.79863 19.7716C7.86536 19.4036 6.709 18.6156 5.97652 17.8536C5.66791 17.5339 5.4002 17.2105 5.4225 17.1919C5.482 17.1473 7.34481 16.7607 7.39687 16.7868C7.40802 16.7942 7.44892 16.8871 7.48611 16.9949ZM17.1497 16.9094C17.5141 16.98 18.3693 17.1808 18.4994 17.2254C18.5701 17.2514 18.4622 17.3926 18.0644 17.809C17.3059 18.6081 16.1607 19.3924 15.2014 19.7716C15.008 19.8459 15.0043 19.8459 15.0526 19.779C15.6364 18.9761 16.1123 18.0952 16.4247 17.2365C16.5659 16.8499 16.5957 16.8016 16.6626 16.8165C16.7072 16.8239 16.9266 16.8685 17.1497 16.9094Z" fill="#0D243F"/>
<path d="M11.2935 2.5095C8.92877 2.72138 6.89863 3.65436 5.27378 5.27872C3.79022 6.76555 2.90157 8.54602 2.56693 10.7019C2.47769 11.3004 2.47769 12.7054 2.56693 13.3039C2.90157 15.4598 3.79022 17.2402 5.27378 18.7271C6.76106 20.2102 8.54207 21.0986 10.6986 21.4331C11.2973 21.5223 12.7027 21.5223 13.3014 21.4331C15.4579 21.0986 17.2389 20.2102 18.7262 18.7271C20.2098 17.2402 21.0984 15.4598 21.4331 13.3039C21.5223 12.7054 21.5223 11.3004 21.4331 10.7019C21.0984 8.54602 20.2098 6.76555 18.7262 5.27872C17.2501 3.80676 15.4468 2.8998 13.3386 2.58013C12.963 2.52437 11.6468 2.47977 11.2935 2.5095ZM11.4311 7.49037C11.4014 7.52011 8.60157 7.33798 8.55323 7.30452C8.53092 7.28594 8.86556 6.48305 9.0589 6.10019C9.67241 4.87356 10.4867 4.0112 11.2935 3.73242L11.4237 3.68781L11.4348 5.58352C11.4386 6.62801 11.4386 7.48294 11.4311 7.49037ZM13.0746 3.89969C13.2939 4.00748 13.7401 4.37547 13.9818 4.64682C14.283 4.97392 14.6771 5.57609 14.9411 6.10019C15.1716 6.56111 15.4691 7.28594 15.4393 7.31567C15.4096 7.34541 13.8814 7.45692 13.201 7.48294L12.5577 7.50524V5.59095V3.67666L12.7436 3.75101C12.8477 3.79189 12.9965 3.8588 13.0746 3.89969ZM8.89159 4.24166C8.87671 4.26768 8.78376 4.39778 8.6908 4.53159C8.27808 5.10402 7.85793 5.92921 7.55675 6.75068C7.47495 6.9737 7.39687 7.13354 7.37084 7.13354C7.21468 7.13354 5.54892 6.7544 5.50431 6.70979C5.47456 6.68005 5.87613 6.23772 6.24795 5.88832C6.88004 5.29359 7.54931 4.83639 8.37476 4.43123C8.87671 4.18962 8.9362 4.16732 8.89159 4.24166ZM15.6252 4.43123C16.447 4.83267 17.1088 5.28244 17.7446 5.88089C18.135 6.24516 18.5589 6.72838 18.518 6.76555C18.4548 6.8213 16.6254 7.20416 16.5957 7.16699C16.592 7.15956 16.525 6.97742 16.447 6.76183C16.1458 5.93664 15.7256 5.10773 15.3092 4.53159C15.0935 4.22679 15.075 4.19705 15.1121 4.19705C15.127 4.19705 15.3613 4.30485 15.6252 4.43123ZM5.14736 7.78031C5.50059 7.8881 6.47847 8.11484 6.84286 8.17803C7.13288 8.22635 7.12544 8.20033 7.01761 8.70586C6.87632 9.37493 6.72016 10.6982 6.72016 11.2446V11.4453H5.1771H3.63405V11.3115C3.63405 10.8915 3.84599 9.88045 4.06908 9.2374C4.25499 8.69099 4.74207 7.6911 4.82016 7.6911C4.83503 7.6911 4.98376 7.73198 5.14736 7.78031ZM19.5665 8.3676C19.8342 8.92516 20.0164 9.43068 20.1577 9.99939C20.2581 10.4157 20.3659 11.0922 20.3659 11.3115V11.4453H18.8303H17.291L17.2687 10.9695C17.2352 10.3488 17.1497 9.61282 17.0344 8.99207C16.9824 8.71701 16.9303 8.43823 16.9192 8.37504L16.9006 8.25609L17.172 8.21149C17.5401 8.15201 18.5217 7.93642 18.9159 7.82491C19.2914 7.72083 19.2282 7.66879 19.5665 8.3676ZM8.80235 8.44938C9.23738 8.4977 9.99589 8.55346 11.0072 8.60549L11.4423 8.6278V10.0366V11.4453H9.63894H7.83562V11.2483C7.83562 11.003 7.93601 9.94736 7.98434 9.64256C8.12935 8.79506 8.22231 8.39734 8.27808 8.39734C8.31155 8.39734 8.54579 8.42336 8.80235 8.44938ZM15.8297 8.6278C15.9933 9.39351 16.1644 10.7279 16.1644 11.2483V11.4453H14.3611H12.5577V10.0366V8.63151L13.1824 8.60549C13.8479 8.57948 15.3427 8.4754 15.4022 8.4531C15.4245 8.44566 15.5174 8.43823 15.6141 8.43823L15.7851 8.43451L15.8297 8.6278ZM6.7499 13.2035C6.80196 13.9135 6.90235 14.6829 7.02505 15.2665C7.07339 15.4932 7.09198 15.6605 7.06967 15.6754C7.05108 15.6939 6.82055 15.746 6.55284 15.7906C6.28885 15.8389 5.8092 15.943 5.49315 16.0248C5.1771 16.1065 4.87221 16.1846 4.81644 16.192C4.71605 16.2106 4.70489 16.192 4.45577 15.6865C4.19178 15.1401 3.9501 14.4747 3.82368 13.9358C3.73816 13.5641 3.63405 12.8876 3.63405 12.6943V12.5605H5.16967H6.70528L6.7499 13.2035ZM11.4423 13.9544V15.3483H11.0072C10.4867 15.3483 9.55342 15.404 8.78748 15.4784C8.48258 15.5081 8.22603 15.5304 8.22231 15.523C8.21859 15.5192 8.17025 15.3036 8.1182 15.0435C8.00294 14.4747 7.88767 13.5938 7.85049 12.9954L7.82446 12.5605H9.63523H11.4423V13.9544ZM16.1644 12.7166C16.1644 13.2221 16.0008 14.497 15.8558 15.1736C15.7814 15.5044 15.7628 15.5527 15.6996 15.5453C14.7106 15.4375 13.4687 15.3483 12.9221 15.3483H12.5577V13.9544V12.5605H14.3611H16.1644V12.7166ZM20.3659 12.6943C20.3659 13.1143 20.1763 14.025 19.9495 14.7164C19.7562 15.2888 19.2691 16.2924 19.1947 16.2627C18.9233 16.1586 17.9231 15.9207 17.0902 15.7571L16.8783 15.7162L16.9489 15.3929C17.1051 14.6755 17.2798 13.2927 17.2798 12.7575V12.5605H18.8229H20.3659V12.6943ZM11.4423 18.3591C11.4423 19.3999 11.4311 20.2548 11.42 20.2548C11.3605 20.2548 10.825 19.9834 10.6354 19.8533C10.1074 19.4965 9.47906 18.6899 9.05519 17.835C8.8544 17.4298 8.53092 16.6492 8.55323 16.6269C8.56438 16.6158 9.99217 16.5005 10.2896 16.4894C10.4235 16.482 10.7358 16.4745 10.9887 16.4708L11.4423 16.4634V18.3591ZM14.5284 16.5563C14.8667 16.5898 15.2125 16.6232 15.298 16.6344L15.4505 16.6529L15.3092 17.0172C15.0898 17.5822 14.7775 18.1992 14.4912 18.6304C14.19 19.0876 13.6806 19.6377 13.3646 19.8533C13.175 19.9834 12.6395 20.2548 12.58 20.2548C12.5689 20.2548 12.5577 19.3999 12.5577 18.3554V16.4522L13.2382 16.4782C13.61 16.4931 14.19 16.5266 14.5284 16.5563ZM7.48611 16.9949C7.79472 17.9242 8.30039 18.8869 8.94736 19.779C8.99569 19.8459 8.99198 19.8459 8.79863 19.7716C7.86536 19.4036 6.709 18.6156 5.97652 17.8536C5.66791 17.5339 5.4002 17.2105 5.4225 17.1919C5.482 17.1473 7.34481 16.7607 7.39687 16.7868C7.40802 16.7942 7.44892 16.8871 7.48611 16.9949ZM17.1497 16.9094C17.5141 16.98 18.3693 17.1808 18.4994 17.2254C18.5701 17.2514 18.4622 17.3926 18.0644 17.809C17.3059 18.6081 16.1607 19.3924 15.2014 19.7716C15.008 19.8459 15.0043 19.8459 15.0526 19.779C15.6364 18.9761 16.1123 18.0952 16.4247 17.2365C16.5659 16.8499 16.5957 16.8016 16.6626 16.8165C16.7072 16.8239 16.9266 16.8685 17.1497 16.9094Z" stroke="#0D243F" stroke-width="0.2" mask="url(#path-1-outside-1_69_4055)"/>
</svg>
