<svg width="24" height="24" viewBox="0 0 24 24" fill="none" xmlns="http://www.w3.org/2000/svg">
<path d="M11.3464 2.02499C9.02406 2.27238 6.99619 3.67996 5.96542 5.77427C5.71299 6.27758 5.50263 6.8918 5.368 7.50601C5.27544 7.91976 5.27123 8.00933 5.25861 11.0378L5.24178 14.1387L4.45924 15.3415C4.03011 16.0069 3.63463 16.6339 3.58835 16.7406C3.51683 16.8984 3.5 17.0136 3.5 17.4273C3.5 17.9093 3.50421 17.9264 3.65567 18.2377C3.91651 18.7709 4.40455 19.142 4.98935 19.2572C5.3133 19.3169 18.6501 19.3169 18.9867 19.2529C19.3612 19.1846 19.6683 19.0183 19.9544 18.7283C20.5013 18.1695 20.6528 17.3804 20.3372 16.6851C20.2825 16.5614 19.8913 15.9387 19.4748 15.2989L18.709 14.1387V11.2724C18.709 8.23113 18.6922 7.90696 18.5029 7.15199C18.1916 5.92355 17.6278 4.93398 16.7148 4.00413C15.8271 3.10413 14.9226 2.56669 13.7445 2.23826C13.0419 2.04205 12.0364 1.95248 11.3464 2.02499Z" fill="#0D243F"/>
<path d="M9.45319 20.2211C9.45319 20.2382 9.51209 20.3662 9.57941 20.5112C9.83605 21.0401 10.2652 21.4581 10.8205 21.7311C11.2539 21.9401 11.5316 22.0041 11.9986 21.9998C12.8063 21.9955 13.5258 21.65 14.0475 21.0188C14.2157 20.8183 14.5018 20.3107 14.5018 20.2211C14.5018 20.2083 13.3659 20.1955 11.9775 20.1955C10.5891 20.1955 9.45319 20.2083 9.45319 20.2211Z" fill="#0D243F"/>
</svg>
