<svg width="24" height="24" viewBox="0 0 24 24" fill="none" xmlns="http://www.w3.org/2000/svg">
<path d="M20.9488 10.6129C20.5669 8.75283 19.6855 7.11792 18.3341 5.75712C16.9827 4.38653 15.3474 3.48586 13.4574 3.08448C12.9677 2.97679 12.86 2.967 12.6446 3.08448C12.4194 3.19217 12.2823 3.40754 12.2627 3.66208C12.2431 3.90683 12.3606 4.14179 12.576 4.27885C12.6935 4.34738 13.1146 4.44527 13.1636 4.45506C14.8381 4.82708 16.2189 5.59069 17.4038 6.81443C18.53 7.96964 19.2351 9.30107 19.5778 10.887C19.6659 11.3178 19.7051 11.4451 19.901 11.5919C20.0283 11.6898 20.1849 11.7388 20.3318 11.7388C20.5179 11.7388 20.6844 11.6604 20.8117 11.5332C21.0467 11.2884 21.0271 11.0632 20.939 10.6227L20.9488 10.6129Z" fill="#003DDA"/>
<path d="M18.2754 14.9792C17.0317 13.7359 16.9534 13.6674 16.6792 13.5303C16.0916 13.2562 15.4845 13.2856 14.9067 13.6086C14.7794 13.6869 14.2995 14.1373 14.0058 14.431L13.3986 15.0282L13.1832 14.9107C11.6849 14.1275 9.73616 12.1695 9.0115 10.7206L8.94295 10.5835L9.51093 10.0157C10.2454 9.28149 10.4216 9.05632 10.549 8.6843C10.7154 8.19481 10.686 7.72489 10.4412 7.22561C10.3139 6.97107 10.2062 6.85359 9.00171 5.64943C7.63073 4.27885 7.52302 4.19074 7.06276 4.05368C6.76898 3.96557 6.28914 3.97536 6.01494 4.06347C5.5351 4.22011 5.11402 4.56275 4.04661 5.69838C3.31216 6.51094 3.08693 6.95149 3.01838 7.78363C2.94004 8.71367 3.10652 9.59476 3.62553 10.9066C4.16413 12.2968 5.01609 13.7065 6.14225 15.1065C7.68949 17.0253 9.56968 18.5819 11.7241 19.7273C13.2224 20.5301 14.5248 20.9413 15.6901 21C15.7587 21 15.8272 21 15.9055 21C16.6792 21 17.3647 20.7553 17.9033 20.2951C17.9816 20.2266 18.4223 19.7861 18.7944 19.4042C19.4995 18.6798 19.5974 18.5721 19.7345 18.2882C20.0185 17.7106 20.0283 17.1917 19.7345 16.6043C19.5778 16.2813 19.5288 16.2323 18.2656 14.9792H18.2754ZM7.5426 10.0843C7.48384 10.2017 7.46426 10.3192 7.47405 10.5444C7.49364 10.7891 7.52302 10.8968 7.6797 11.2101C8.17912 12.2282 8.81565 13.0506 9.94181 14.1764C10.8721 15.0967 11.7926 15.7918 12.7523 16.2813C13.1146 16.4673 13.2224 16.5162 13.4476 16.5162C13.4574 16.5162 13.477 16.5162 13.4868 16.5162C13.6532 16.5162 13.8001 16.4869 13.9078 16.4379C14.0449 16.3694 14.7696 15.6547 14.8577 15.5764C15.3572 15.0869 15.6607 14.8128 15.6999 14.7932C15.788 14.7443 15.9741 14.754 16.0818 14.7932C16.2679 14.9009 18.4125 17.0351 18.5202 17.2309C18.5887 17.3777 18.5887 17.5344 18.5202 17.6812C18.4614 17.7791 17.5018 18.8071 17.0415 19.228C16.7085 19.5315 16.4344 19.6294 15.886 19.6294H15.8566C14.9948 19.6294 14.0058 19.3259 12.7327 18.6896C10.5587 17.6029 8.73731 16.1246 7.17048 14.1666C5.78971 12.4534 4.82024 10.564 4.49708 9.00737C4.41874 8.63535 4.40894 8.55703 4.42853 8.12628C4.44811 7.63678 4.48728 7.47035 4.64397 7.20603C4.76148 7.02002 6.19121 5.59069 6.34789 5.50258C6.41644 5.46342 6.49478 5.44384 6.57313 5.44384C6.64167 5.44384 6.71022 5.46342 6.76898 5.483C6.96483 5.59069 9.11922 7.74447 9.21715 7.94027C9.33466 8.2046 9.35425 8.25355 8.41415 9.18359C8.38477 9.21296 7.63073 9.95699 7.55239 10.1136L7.5426 10.0843Z" fill="#003DDA"/>
<path d="M12.9384 7.63678C13.8589 7.86195 14.6031 8.28292 15.2201 8.93884C15.8076 9.5556 16.2091 10.2996 16.3854 11.1024C16.4637 11.4451 16.5225 11.6017 16.6988 11.7388C16.8163 11.8367 16.9632 11.8856 17.11 11.8856C17.1982 11.8856 17.2863 11.866 17.3647 11.8367C17.5899 11.7485 17.7564 11.5625 17.7955 11.3374C17.8641 10.9751 17.5409 9.97657 17.2765 9.4577C16.4833 7.86195 15.034 6.70674 13.3007 6.28578C12.8992 6.18788 12.6838 6.15851 12.4487 6.29557C12.1256 6.49136 12.0081 6.93191 12.2039 7.24519C12.3508 7.48014 12.5075 7.52909 12.9188 7.63678H12.9384Z" fill="#003DDA"/>
</svg>
